<svg xmlns="http://www.w3.org/2000/svg" xmlns:xlink="http://www.w3.org/1999/xlink" width="15" height="15" viewBox="0 0 15 15">
    <defs>
        <path id="a" d="M0 0h15v15H0z"/>
    </defs>
    <g fill="none" fill-rule="evenodd">
        <mask id="b" fill="#fff">
            <use xlink:href="#a"/>
        </mask>
        <path fill="#fff" d="M1.48 3.573c.911 1.372 2.296 2.008 3.813 2.46.84.251 1.151.107.834-.814-.512-1.486-1.063-2.938-2.577-3.836.264-.15.436-.333.57-.309 1.182.215 2.255.15 3.038-.945.075-.106.434-.168.49-.102.993 1.154 2.343 1.252 3.79 1.22-1.3 1.013-1.96 2.299-2.396 3.718-.113.366-.469.79-.077 1.144.314.282.697.002 1.034-.106 1.41-.454 2.74-1.035 3.572-2.546.188.386.41.626.363.778-.357 1.126-.169 1.997.827 2.759.466.356.179.973-.246 1.314-.643.517-1.141.988-.578 1.9.216.35.03.807-.368 1.216-.956-1.406-2.384-2.047-3.917-2.544-.807-.262-1.037-.02-.806.753.384 1.29.895 2.512 1.926 3.443.181.163.596.22.453.57-.14.34-.572.428-.834.304-1.021-.485-1.646-.025-2.274.734-.38.46-.959.4-1.317-.066-.581-.757-1.174-1.18-2.159-.687-.298.149-.732.048-1-.416 1.298-.826 1.902-2.156 2.354-3.563.112-.35.499-.776.087-1.138-.33-.29-.697.02-1.03.128-1.406.46-2.722 1.07-3.536 2.364-.322-.126-.492-.348-.436-.56.3-1.12.153-2.033-.834-2.811-.505-.4-.14-.994.264-1.3.695-.524 1.067-1.03.59-1.925-.186-.35-.085-.82.38-1.137" mask="url(#b)"/>
    </g>f
</svg>
